<mxfile host="app.diagrams.net" agent="Mozilla/5.0 (Macintosh; Intel Mac OS X 10_15_7) AppleWebKit/537.36 (KHTML, like Gecko) Chrome/135.0.0.0 Safari/537.36 Edg/135.0.0.0" version="26.2.8">
  <diagram name="Page-1" id="NWeBWR0PKxTLzvjKcY70">
    <mxGraphModel dx="1052" dy="730" grid="0" gridSize="10" guides="1" tooltips="1" connect="1" arrows="1" fold="1" page="1" pageScale="1" pageWidth="850" pageHeight="1100" math="0" shadow="0">
      <root>
        <mxCell id="0" />
        <mxCell id="1" parent="0" />
        <mxCell id="j_U_G-EBbpLPxV1Z2xfl-19" style="edgeStyle=orthogonalEdgeStyle;shape=connector;curved=1;rounded=0;orthogonalLoop=1;jettySize=auto;html=1;exitX=0.5;exitY=1;exitDx=0;exitDy=0;entryX=0.5;entryY=0;entryDx=0;entryDy=0;strokeColor=default;align=center;verticalAlign=middle;fontFamily=Helvetica;fontSize=11;fontColor=default;labelBackgroundColor=default;endArrow=classic;" edge="1" parent="1" source="j_U_G-EBbpLPxV1Z2xfl-1" target="j_U_G-EBbpLPxV1Z2xfl-2">
          <mxGeometry relative="1" as="geometry" />
        </mxCell>
        <mxCell id="j_U_G-EBbpLPxV1Z2xfl-1" value="Doc Signup&lt;br&gt;Trackdesk" style="rounded=1;whiteSpace=wrap;html=1;" vertex="1" parent="1">
          <mxGeometry x="62" y="13" width="99" height="63" as="geometry" />
        </mxCell>
        <mxCell id="j_U_G-EBbpLPxV1Z2xfl-17" style="edgeStyle=orthogonalEdgeStyle;shape=connector;curved=1;rounded=0;orthogonalLoop=1;jettySize=auto;html=1;exitX=0.5;exitY=1;exitDx=0;exitDy=0;entryX=0.5;entryY=0;entryDx=0;entryDy=0;strokeColor=default;align=center;verticalAlign=middle;fontFamily=Helvetica;fontSize=11;fontColor=default;labelBackgroundColor=default;endArrow=classic;" edge="1" parent="1" source="j_U_G-EBbpLPxV1Z2xfl-2" target="j_U_G-EBbpLPxV1Z2xfl-4">
          <mxGeometry relative="1" as="geometry" />
        </mxCell>
        <mxCell id="j_U_G-EBbpLPxV1Z2xfl-18" style="edgeStyle=orthogonalEdgeStyle;shape=connector;curved=1;rounded=0;orthogonalLoop=1;jettySize=auto;html=1;exitX=0.5;exitY=1;exitDx=0;exitDy=0;entryX=0.5;entryY=0;entryDx=0;entryDy=0;strokeColor=default;align=center;verticalAlign=middle;fontFamily=Helvetica;fontSize=11;fontColor=default;labelBackgroundColor=default;endArrow=classic;" edge="1" parent="1" source="j_U_G-EBbpLPxV1Z2xfl-2" target="j_U_G-EBbpLPxV1Z2xfl-6">
          <mxGeometry relative="1" as="geometry" />
        </mxCell>
        <mxCell id="j_U_G-EBbpLPxV1Z2xfl-2" value="Zap&lt;br&gt;Registration" style="rounded=1;whiteSpace=wrap;html=1;" vertex="1" parent="1">
          <mxGeometry x="37" y="139" width="99" height="65" as="geometry" />
        </mxCell>
        <mxCell id="j_U_G-EBbpLPxV1Z2xfl-20" style="edgeStyle=orthogonalEdgeStyle;shape=connector;curved=1;rounded=0;orthogonalLoop=1;jettySize=auto;html=1;exitX=0.5;exitY=1;exitDx=0;exitDy=0;entryX=0.5;entryY=0;entryDx=0;entryDy=0;strokeColor=default;align=center;verticalAlign=middle;fontFamily=Helvetica;fontSize=11;fontColor=default;labelBackgroundColor=default;endArrow=classic;startArrow=classic;startFill=1;" edge="1" parent="1" source="j_U_G-EBbpLPxV1Z2xfl-4" target="j_U_G-EBbpLPxV1Z2xfl-13">
          <mxGeometry relative="1" as="geometry" />
        </mxCell>
        <mxCell id="j_U_G-EBbpLPxV1Z2xfl-4" value="G Sheet&lt;div&gt;All Affs&lt;/div&gt;" style="rounded=1;whiteSpace=wrap;html=1;" vertex="1" parent="1">
          <mxGeometry x="161" y="269" width="99" height="49" as="geometry" />
        </mxCell>
        <mxCell id="j_U_G-EBbpLPxV1Z2xfl-6" value="GHL" style="rounded=1;whiteSpace=wrap;html=1;" vertex="1" parent="1">
          <mxGeometry x="19" y="267" width="99" height="49" as="geometry" />
        </mxCell>
        <mxCell id="j_U_G-EBbpLPxV1Z2xfl-11" style="edgeStyle=orthogonalEdgeStyle;rounded=0;orthogonalLoop=1;jettySize=auto;html=1;exitX=1;exitY=0.5;exitDx=0;exitDy=0;entryX=0;entryY=0.5;entryDx=0;entryDy=0;curved=1;" edge="1" parent="1" source="j_U_G-EBbpLPxV1Z2xfl-9" target="j_U_G-EBbpLPxV1Z2xfl-10">
          <mxGeometry relative="1" as="geometry" />
        </mxCell>
        <mxCell id="j_U_G-EBbpLPxV1Z2xfl-9" value="Woo&lt;br&gt;Trackdesk Integrated" style="rounded=1;whiteSpace=wrap;html=1;" vertex="1" parent="1">
          <mxGeometry x="461" y="383" width="99" height="63" as="geometry" />
        </mxCell>
        <mxCell id="j_U_G-EBbpLPxV1Z2xfl-10" value="Shipstation" style="rounded=1;whiteSpace=wrap;html=1;" vertex="1" parent="1">
          <mxGeometry x="612" y="383" width="99" height="63" as="geometry" />
        </mxCell>
        <mxCell id="j_U_G-EBbpLPxV1Z2xfl-12" value="Inventory &lt;br&gt;G Sheet" style="rounded=1;whiteSpace=wrap;html=1;" vertex="1" parent="1">
          <mxGeometry x="465" y="477" width="99" height="63" as="geometry" />
        </mxCell>
        <mxCell id="j_U_G-EBbpLPxV1Z2xfl-15" style="edgeStyle=orthogonalEdgeStyle;shape=connector;curved=1;rounded=0;orthogonalLoop=1;jettySize=auto;html=1;exitX=1;exitY=0.5;exitDx=0;exitDy=0;entryX=0;entryY=0.5;entryDx=0;entryDy=0;strokeColor=default;align=center;verticalAlign=middle;fontFamily=Helvetica;fontSize=11;fontColor=default;labelBackgroundColor=default;endArrow=classic;" edge="1" parent="1" source="j_U_G-EBbpLPxV1Z2xfl-13" target="j_U_G-EBbpLPxV1Z2xfl-9">
          <mxGeometry relative="1" as="geometry" />
        </mxCell>
        <mxCell id="j_U_G-EBbpLPxV1Z2xfl-13" value="&lt;font style=&quot;font-size: 26px;&quot;&gt;í ¾í´–&lt;/font&gt;" style="rounded=1;whiteSpace=wrap;html=1;" vertex="1" parent="1">
          <mxGeometry x="131" y="481" width="84" height="49" as="geometry" />
        </mxCell>
        <mxCell id="j_U_G-EBbpLPxV1Z2xfl-16" style="edgeStyle=orthogonalEdgeStyle;shape=connector;curved=1;rounded=0;orthogonalLoop=1;jettySize=auto;html=1;exitX=1;exitY=0.5;exitDx=0;exitDy=0;entryX=0.006;entryY=0.631;entryDx=0;entryDy=0;entryPerimeter=0;strokeColor=default;align=center;verticalAlign=middle;fontFamily=Helvetica;fontSize=11;fontColor=default;labelBackgroundColor=default;endArrow=classic;" edge="1" parent="1" source="j_U_G-EBbpLPxV1Z2xfl-13" target="j_U_G-EBbpLPxV1Z2xfl-12">
          <mxGeometry relative="1" as="geometry" />
        </mxCell>
      </root>
    </mxGraphModel>
  </diagram>
</mxfile>
